<?xml version="1.0" standalone="no"?>
<!DOCTYPE svg PUBLIC "-//W3C//DTD SVG 20010904//EN"
 "http://www.w3.org/TR/2001/REC-SVG-20010904/DTD/svg10.dtd">
<svg version="1.0" xmlns="http://www.w3.org/2000/svg"
 width="700.000000pt" height="700.000000pt" viewBox="0 0 700.000000 700.000000"
 preserveAspectRatio="xMidYMid meet">
<metadata>
Created by potrace 1.11, written by Peter Selinger 2001-2013
</metadata>
<g transform="translate(0.000000,700.000000) scale(0.100000,-0.100000)"
fill="#000000" stroke="none">
<path d="M3216 6781 l-220 -219 189 -187 188 -186 48 47 c27 27 49 54 49 60 0
7 -11 21 -24 32 l-25 19 37 37 c21 20 41 36 46 36 4 0 23 -15 41 -33 l34 -34
-1361 -1361 -1361 -1362 52 -54 51 -55 1520 1520 1521 1520 -219 219 -219 220
-64 0 -64 0 -219 -219z m430 -75 l144 -145 -52 -51 -52 -51 -91 91 -91 91 -89
-91 c-49 -49 -93 -90 -97 -90 -3 0 -29 23 -57 50 l-51 51 142 144 c79 79 145
144 147 144 2 1 68 -64 147 -143z"/>
<path d="M1945 5084 c-632 -634 -1151 -1157 -1153 -1162 -3 -9 84 -102 96
-102 4 0 529 522 1167 1160 l1159 1159 -24 27 c-40 44 -74 73 -85 73 -5 -1
-527 -520 -1160 -1155z"/>
<path d="M1729 5292 l-927 -927 53 -54 53 -54 926 927 c509 511 926 932 926
936 0 9 -90 100 -99 100 -4 0 -423 -418 -932 -928z"/>
<path d="M3876 6159 c-27 -27 -47 -52 -45 -54 2 -3 526 -527 1164 -1165 l1159
-1160 53 52 53 53 -1162 1162 c-640 640 -1165 1163 -1168 1162 -3 0 -27 -23
-54 -50z"/>
<path d="M4317 6132 l-48 -49 926 -926 c510 -510 930 -927 934 -927 4 0 29 22
56 50 l49 50 -924 925 c-509 508 -930 925 -935 925 -6 0 -32 -22 -58 -48z"/>
<path d="M3577 6092 c-26 -26 -47 -51 -47 -55 0 -3 682 -689 1515 -1523 l1515
-1517 220 219 220 219 0 64 0 64 -220 219 -220 218 -186 -186 -186 -186 53
-54 53 -53 28 29 28 30 46 -46 45 -46 -40 -39 -40 -39 -1364 1365 c-750 751
-1366 1365 -1369 1365 -2 0 -25 -22 -51 -48z m3196 -2513 l77 -76 -139 -142
c-77 -77 -143 -141 -148 -141 -4 0 -28 18 -51 41 -50 47 -56 34 62 151 l80 79
-97 95 c-109 107 -107 96 -33 166 l39 37 67 -67 c36 -37 101 -101 143 -143z"/>
<path d="M3554 4962 c-15 -9 -54 -87 -54 -107 0 -24 -37 -55 -67 -55 -43 0
-153 -30 -220 -60 -65 -30 -103 -73 -103 -117 0 -14 -13 -29 -36 -44 -53 -33
-95 -103 -88 -148 8 -54 73 -178 116 -219 21 -20 38 -41 38 -46 0 -9 -115 3
-170 19 -8 3 -33 7 -55 11 -22 3 -46 11 -53 17 -25 20 -49 82 -82 207 -18 69
-41 137 -51 151 -25 35 -87 63 -186 85 -70 15 -86 15 -113 4 -41 -17 -77 -54
-101 -105 -32 -69 -21 -123 28 -139 13 -4 30 -20 40 -36 9 -16 36 -40 60 -52
28 -15 41 -28 38 -38 -8 -27 -18 -134 -17 -181 2 -104 68 -219 127 -219 35 0
41 -18 8 -26 -77 -16 -111 -43 -138 -106 -14 -34 -81 -94 -142 -126 -19 -10
-21 -19 -18 -73 9 -163 62 -239 138 -197 12 7 37 13 54 14 46 4 57 12 100 73
l38 54 70 -1 c51 0 89 -7 140 -27 89 -34 142 -51 181 -60 22 -4 35 -16 48 -42
9 -19 16 -36 14 -37 -2 -2 -25 -15 -53 -31 -77 -43 -186 -127 -229 -175 -50
-56 -96 -154 -100 -216 -4 -61 23 -137 63 -178 17 -17 77 -60 135 -96 58 -36
105 -69 106 -74 0 -5 -11 -23 -24 -41 l-25 -32 -67 14 c-176 36 -293 -37 -297
-186 -2 -52 19 -88 54 -95 29 -6 48 -18 54 -35 12 -38 57 -51 196 -54 141 -4
179 2 217 37 13 11 64 81 115 156 51 74 108 151 128 170 20 19 41 45 48 57 25
49 5 125 -41 155 -13 8 -56 26 -96 39 -53 17 -72 28 -72 40 0 37 81 76 196 94
l42 6 12 -53 c19 -79 49 -137 96 -183 59 -59 139 -82 310 -88 37 -2 39 -3 36
-32 -2 -16 -11 -46 -20 -65 -18 -38 -15 -37 -122 -25 -46 6 -62 3 -99 -17 -62
-33 -104 -109 -107 -196 -3 -59 -1 -67 26 -93 16 -17 39 -29 54 -29 17 0 30
-9 42 -30 27 -45 59 -53 184 -45 136 8 155 11 205 35 52 25 65 48 126 226 60
173 94 254 108 254 18 0 34 42 33 86 -2 75 -59 158 -127 184 -16 7 -65 11
-107 11 -44 -1 -78 3 -78 8 0 5 7 42 15 81 40 191 38 273 -8 305 -15 11 -17
15 -7 16 32 2 78 10 152 29 231 57 413 176 484 316 26 52 29 67 29 159 0 97
-1 104 -38 179 -33 66 -60 99 -186 227 -187 188 -196 205 -196 353 0 99 3 115
23 149 27 43 44 46 64 15 44 -69 40 -160 -9 -218 -31 -37 -28 -79 7 -97 34
-18 140 -9 187 16 84 42 127 110 125 198 -1 93 -55 176 -131 202 -44 14 -51
14 -51 -4 0 -21 -9 -19 -31 9 -43 54 -135 72 -199 37 -92 -48 -137 -174 -127
-355 8 -159 37 -208 251 -421 133 -132 167 -185 174 -273 12 -140 -112 -260
-353 -340 -116 -39 -235 -51 -270 -28 -90 59 -59 262 87 576 76 162 92 224 97
365 7 236 -92 423 -271 514 -37 18 -75 43 -85 53 -44 49 -162 85 -199 60z
m110 -171 c16 -18 16 -19 -11 -24 -34 -6 -34 -7 -26 21 7 27 15 28 37 3z m-47
-137 c55 -36 93 -97 93 -149 0 -61 -33 -100 -131 -158 l-47 -28 -11 34 c-14
41 -44 70 -87 85 -40 13 -67 -3 -143 -82 -29 -31 -59 -56 -66 -56 -6 0 -22 11
-35 25 -20 21 -21 25 -7 31 13 5 14 10 4 32 -6 15 -17 34 -24 43 -20 24 -17
28 41 55 l54 25 26 -26 c32 -32 72 -32 171 -4 l74 22 -14 34 c-13 30 -12 36 7
69 11 19 18 38 14 41 -8 8 13 33 28 33 7 0 30 -12 53 -26z m-1031 -155 c23 -7
33 -17 37 -37 3 -15 9 -35 12 -45 4 -9 -9 -1 -28 18 -26 26 -44 35 -67 35 -30
0 -59 21 -60 43 0 9 56 1 106 -14z m83 -217 c26 -85 84 -177 126 -199 17 -9
205 -53 227 -53 4 0 -1 -15 -11 -32 -11 -18 -22 -48 -26 -65 -4 -18 -9 -33
-11 -33 -3 0 -21 8 -42 19 -20 10 -71 26 -112 35 -73 16 -90 25 -187 106 -7 6
-13 32 -13 58 0 44 21 232 27 232 1 0 11 -30 22 -68z m929 -97 c-19 -13 -113
-63 -208 -110 -125 -63 -185 -100 -221 -134 -55 -53 -59 -53 -26 1 37 62 98
98 352 208 55 24 104 47 110 52 5 4 14 8 19 8 6 0 -6 -11 -26 -25z m182 -51
c-55 -56 -117 -98 -247 -163 -54 -28 -117 -66 -140 -86 -23 -19 -43 -30 -45
-24 -2 6 -28 -38 -57 -98 -66 -135 -93 -170 -145 -194 -61 -26 -82 -22 -291
56 -51 19 -82 25 -115 22 -24 -2 -55 0 -67 6 -12 5 -33 7 -46 3 -30 -7 -124
-90 -132 -116 -4 -11 -13 -20 -21 -20 -28 0 -13 26 41 67 34 27 63 60 79 91
l24 48 69 -11 c76 -13 243 -10 316 5 74 15 77 14 77 -25 0 -29 4 -35 21 -35
40 0 90 32 105 67 8 18 20 48 28 67 20 48 57 72 251 170 120 60 194 105 250
151 44 36 82 65 85 65 2 0 -16 -21 -40 -46z m64 -151 c-60 -79 -153 -150 -285
-218 -116 -60 -133 -91 -99 -181 6 -14 13 -24 18 -22 33 15 179 93 222 118 29
17 54 29 56 27 2 -2 -2 -21 -8 -43 -6 -21 -11 -79 -12 -129 -2 -143 44 -233
142 -277 35 -16 42 -24 43 -48 1 -17 2 -40 3 -52 2 -36 -15 -161 -34 -243 -22
-95 -10 -149 45 -198 11 -10 15 -16 10 -13 -6 2 -51 6 -100 7 -212 4 -246 46
-270 334 -8 99 -38 243 -61 293 -10 20 -42 79 -72 130 -58 98 -62 116 -42 188
22 77 81 130 222 202 68 34 151 84 184 111 32 27 61 50 63 50 2 1 -9 -15 -25
-36z m-482 -663 c14 -25 29 -55 33 -68 l6 -22 -35 21 c-41 24 -104 94 -135
150 l-21 37 32 20 32 21 32 -57 c17 -31 42 -77 56 -102z m-151 -126 c37 -41
122 -92 173 -105 39 -9 46 -15 46 -35 0 -13 -6 -24 -12 -25 -62 -4 -168 -34
-229 -65 -52 -26 -106 -83 -114 -119 -3 -14 -7 -35 -9 -47 -3 -13 1 -40 9 -61
7 -21 10 -37 6 -35 -3 2 -28 17 -55 33 -167 103 -185 128 -156 214 10 30 34
70 56 93 34 36 237 178 254 178 4 0 17 -12 31 -26z m963 -526 c14 -20 14 -24
1 -43 -27 -36 -61 -118 -115 -274 -41 -117 -58 -155 -74 -161 -12 -4 -61 -10
-110 -13 -83 -5 -89 -4 -110 17 -11 13 -31 28 -43 35 -26 13 -29 38 -10 64 11
15 19 16 73 6 80 -16 127 -6 174 37 47 42 78 125 87 232 5 67 4 75 -17 97
l-23 25 76 0 c67 0 78 -3 91 -22z m-949 -117 c-23 -31 -74 -104 -114 -163 -40
-58 -81 -108 -90 -110 -9 -3 -56 -3 -106 -1 -89 4 -90 4 -129 43 l-39 40 24 9
c29 11 66 8 144 -9 34 -7 73 -10 88 -6 41 10 94 62 137 135 39 67 44 97 22
138 -11 19 -10 19 47 -1 l58 -20 -42 -55z"/>
<path d="M217 3782 l-217 -218 0 -63 0 -64 213 -213 c116 -118 218 -214 225
-214 7 0 94 82 193 181 l181 181 -48 49 c-27 27 -53 49 -59 49 -5 0 -21 -12
-34 -25 -13 -14 -26 -25 -30 -25 -4 0 -22 16 -41 35 l-34 35 43 43 42 44 1361
-1359 1361 -1359 53 52 54 53 -1521 1518 c-836 835 -1521 1518 -1522 1518 -1
0 -100 -98 -220 -218z m272 -46 l54 -55 -91 -92 c-51 -50 -92 -94 -92 -98 0
-3 40 -46 89 -95 l88 -88 -50 -48 -50 -49 -72 72 c-40 40 -105 105 -144 145
l-72 72 143 145 c79 79 143 145 143 145 1 0 25 -24 54 -54z"/>
<path d="M4516 1959 l-1519 -1519 220 -220 221 -220 62 0 63 0 219 220 219
219 -187 187 -186 186 -49 -48 c-27 -27 -49 -54 -49 -60 0 -7 14 -24 31 -39
l32 -26 -42 -40 c-24 -21 -46 -39 -50 -39 -4 0 -24 18 -46 40 -38 39 -39 40
-19 61 10 12 624 626 1364 1365 l1345 1344 -55 54 -55 53 -1519 -1518z m-1106
-1524 l95 -95 83 84 c118 120 104 114 151 67 23 -23 41 -45 41 -51 0 -5 -63
-72 -140 -149 l-139 -139 -145 144 -145 143 42 45 c23 25 46 45 52 46 5 0 53
-43 105 -95z"/>
<path d="M4991 2041 l-1163 -1161 23 -27 c13 -16 37 -40 54 -54 l30 -26 1163
1161 1163 1161 -54 53 -54 53 -1162 -1160z"/>
<path d="M834 3115 l-51 -53 1156 -1156 c636 -635 1159 -1159 1164 -1163 7 -6
107 84 107 97 0 5 -2302 2310 -2323 2327 -1 1 -25 -22 -53 -52z"/>
<path d="M5189 1839 l-931 -931 39 -37 c21 -20 46 -42 55 -50 15 -11 124 94
944 913 l927 926 -19 21 c-10 12 -34 37 -51 55 l-33 34 -931 -931z"/>
<path d="M862 2678 l-51 -52 930 -930 930 -930 53 53 53 52 -917 917 c-504
504 -923 922 -931 929 -12 10 -24 3 -67 -39z"/>
</g>
</svg>
